<?xml version="1.0" encoding="UTF-8" standalone="no"?>
<!-- Created with Inkscape (http://www.inkscape.org/) -->

<svg
   xmlns:dc="http://purl.org/dc/elements/1.1/"
   xmlns:cc="http://creativecommons.org/ns#"
   xmlns:rdf="http://www.w3.org/1999/02/22-rdf-syntax-ns#"
   xmlns:svg="http://www.w3.org/2000/svg"
   xmlns="http://www.w3.org/2000/svg"
   xmlns:sodipodi="http://sodipodi.sourceforge.net/DTD/sodipodi-0.dtd"
   xmlns:inkscape="http://www.inkscape.org/namespaces/inkscape"
   width="192"
   height="192"
   viewBox="0 0 50.799999 50.800001"
   version="1.1"
   id="svg4550"
   inkscape:version="0.92.1 r15371"
   sodipodi:docname="SmartLockLogoSmall.svg">
  <defs
     id="defs4544" />
  <sodipodi:namedview
     id="base"
     pagecolor="#ffffff"
     bordercolor="#666666"
     borderopacity="1.0"
     inkscape:pageopacity="0.0"
     inkscape:pageshadow="2"
     inkscape:zoom="2.8"
     inkscape:cx="96.068259"
     inkscape:cy="92.633813"
     inkscape:document-units="px"
     inkscape:current-layer="layer1"
     showgrid="false"
     units="px"
     inkscape:window-width="1920"
     inkscape:window-height="1017"
     inkscape:window-x="-8"
     inkscape:window-y="212"
     inkscape:window-maximized="1" />
  <metadata
     id="metadata4547">
    <rdf:RDF>
      <cc:Work
         rdf:about="">
        <dc:format>image/svg+xml</dc:format>
        <dc:type
           rdf:resource="http://purl.org/dc/dcmitype/StillImage" />
        <dc:title></dc:title>
      </cc:Work>
    </rdf:RDF>
  </metadata>
  <g
     inkscape:label="Laag 1"
     inkscape:groupmode="layer"
     id="layer1"
     transform="translate(0,-246.19998)">
    <path
       style="fill:#337ab7;fill-opacity:1;stroke:#000000;stroke-width:0.07388405"
       d="m 23.319667,295.35414 c -3.25986,-1.8856 -9.637097,-5.54151 -12.929707,-7.41226 -4.2729024,-2.42771 -5.2197129,-2.98576 -6.4461651,-3.79937 l -1.0156873,-0.67379 0.018249,-11.99331 0.018249,-11.99331 0.9235492,-0.56114 c 2.930976,-1.78077 11.8339422,-6.73872 20.5273932,-11.43142 1.160425,-0.6264 1.214733,-0.64744 1.415754,-0.54851 0.114976,0.0567 4.963063,2.76269 10.773539,6.0136 8.328605,4.65975 10.547734,5.9312 10.485307,6.00752 -0.12169,0.14871 -2.644086,1.80696 -4.375931,2.87669 -0.853359,0.52711 -1.720349,1.06421 -1.926641,1.19356 l -0.375076,0.23519 -2.506403,-1.45313 c -2.646318,-1.53426 -10.732123,-6.17139 -11.571111,-6.63594 l -0.494176,-0.27361 -0.287824,0.14684 c -1.746495,0.89099 -13.373301,7.78436 -14.470075,8.5791 -0.152797,0.11076 -0.15297,0.11881 -0.182821,8.41893 l -0.02987,8.30809 2.844536,1.65632 c 1.564493,0.91098 4.782554,2.78243 7.151239,4.15875 l 4.30671,2.50242 7.606507,-4.081 7.606511,-4.081 0.0033,-5.65212 0.0033,-5.65214 3.144894,-1.99486 c 1.729693,-1.09719 3.274493,-2.07305 3.432888,-2.16862 l 0.287982,-0.17373 -1.1e-4,9.70477 -1.07e-4,9.70478 -10.998299,6.04003 c -6.049067,3.322 -11.044501,6.03935 -11.100966,6.03852 -0.05646,-8.3e-4 -0.883995,-0.45346 -1.838943,-1.00585 z"
       id="path4570"
       inkscape:connector-curvature="0"
       inkscape:export-xdpi="96"
       inkscape:export-ydpi="96" />
    <path
       style="fill:#337ab7;fill-opacity:1;stroke:#000000;stroke-width:0.07388405"
       d="m 20.068533,281.2243 -5.356357,-3.09594 v -5.92868 -5.92869 l 5.522602,-3.43214 5.522607,-3.43215 5.35682,3.12492 5.356818,3.12493 v 6.09944 6.09943 l -5.417506,3.19188 c -2.979629,1.75553 -5.465013,3.21012 -5.523069,3.23239 -0.0593,0.0228 -2.452641,-1.31608 -5.461915,-3.05539 z m 7.757927,-0.50776 c -7.5e-5,-0.15231 -0.166314,-2.20019 -0.369421,-4.55066 -0.20311,-2.35049 -0.369057,-4.39523 -0.368771,-4.54386 l 4.13e-4,-0.27029 0.636261,-0.25517 c 0.796814,-0.31957 1.243453,-0.70767 1.603967,-1.39374 0.774066,-1.47305 0.601299,-3.14502 -0.461452,-4.46581 -0.794281,-0.98713 -1.828955,-1.45923 -3.194271,-1.4575 -1.09823,10e-4 -1.865571,0.27137 -2.6678,0.9386 -1.440871,1.19841 -1.836437,2.86941 -1.063133,4.49099 0.31191,0.65407 0.768206,1.15553 1.479062,1.62546 0.40338,0.26665 0.559425,0.41348 0.56101,0.52782 0.0026,0.16539 -0.776408,8.76905 -0.843281,9.31722 l -0.03831,0.314 h 2.362876 2.362876 l -1.49e-4,-0.27706 z"
       id="path4572"
       inkscape:connector-curvature="0"
       inkscape:export-xdpi="96"
       inkscape:export-ydpi="96" />
  </g>
</svg>
