<?xml version="1.0" encoding="UTF-8" standalone="no"?>
<!-- Created with Inkscape (http://www.inkscape.org/) -->

<svg
   xmlns:dc="http://purl.org/dc/elements/1.1/"
   xmlns:cc="http://creativecommons.org/ns#"
   xmlns:rdf="http://www.w3.org/1999/02/22-rdf-syntax-ns#"
   xmlns:svg="http://www.w3.org/2000/svg"
   xmlns="http://www.w3.org/2000/svg"
   xmlns:sodipodi="http://sodipodi.sourceforge.net/DTD/sodipodi-0.dtd"
   xmlns:inkscape="http://www.inkscape.org/namespaces/inkscape"
   width="500"
   height="125"
   viewBox="0 0 132.29167 33.072918"
   version="1.1"
   id="svg118"
   inkscape:version="0.92.1 r15371"
   sodipodi:docname="SmartLockLogo.svg">
  <defs
     id="defs112" />
  <sodipodi:namedview
     id="base"
     pagecolor="#ffffff"
     bordercolor="#666666"
     borderopacity="1.0"
     inkscape:pageopacity="0.0"
     inkscape:pageshadow="2"
     inkscape:zoom="1.979899"
     inkscape:cx="78.140965"
     inkscape:cy="131.63719"
     inkscape:document-units="mm"
     inkscape:current-layer="layer1"
     showgrid="false"
     units="px"
     inkscape:window-width="1920"
     inkscape:window-height="1017"
     inkscape:window-x="-8"
     inkscape:window-y="212"
     inkscape:window-maximized="1" />
  <metadata
     id="metadata115">
    <rdf:RDF>
      <cc:Work
         rdf:about="">
        <dc:format>image/svg+xml</dc:format>
        <dc:type
           rdf:resource="http://purl.org/dc/dcmitype/StillImage" />
        <dc:title />
      </cc:Work>
    </rdf:RDF>
  </metadata>
  <g
     inkscape:label="Laag 1"
     inkscape:groupmode="layer"
     id="layer1"
     transform="translate(0,-263.92706)">
    <g
       transform="matrix(0.26458333,0,0,0.26458333,-129.47507,147.01527)"
       data-item-type="text"
       data-item="Business"
       id="logo__item--business"
       class="logo__item">
      <g
         class="logo__item__inner"
         transform="translate(704.75781,517.87134)"
         id="g4">
        <g
           aria-label="SmartLock"
           style="font-style:normal;font-weight:bold;font-size:32px;font-family:Orbitron;letter-spacing:0;dominant-baseline:auto;fill:#44bbf8"
           id="text2">
          <path
             d="m 21.59375,-7.3125 q 0,3.4375 -2.921875,5.59375 -2.90625,2.140625 -7.90625,2.140625 -2.890625,0 -5.046875,-0.5 Q 3.578125,-0.59375 1.703125,-1.375 v -5.578125 h 0.65625 q 1.859375,1.484375 4.15625,2.28125 2.3125,0.796875 4.4375,0.796875 0.546875,0 1.4375,-0.09375 0.890625,-0.09375 1.453125,-0.3125 0.6875,-0.28125 1.125,-0.703125 0.453125,-0.421875 0.453125,-1.25 0,-0.765625 -0.65625,-1.3125 Q 14.125,-8.109375 12.875,-8.40625 11.5625,-8.71875 10.09375,-8.984375 8.640625,-9.265625 7.359375,-9.6875 4.421875,-10.640625 3.125,-12.265625 q -1.28125,-1.640625 -1.28125,-4.0625 0,-3.25 2.90625,-5.296875 2.921875,-2.0625 7.5,-2.0625 2.296875,0 4.53125,0.453125 2.25,0.4375 3.890625,1.109375 v 5.359375 H 20.03125 q -1.40625,-1.125 -3.453125,-1.875 -2.03125,-0.765625 -4.15625,-0.765625 -0.75,0 -1.5,0.109375 -0.734375,0.09375 -1.421875,0.375 -0.609375,0.234375 -1.046875,0.71875 -0.4375,0.46875 -0.4375,1.078125 0,0.921875 0.703125,1.421875 0.703125,0.484375 2.65625,0.890625 1.28125,0.265625 2.453125,0.515625 1.1875,0.25 2.546875,0.6875 2.671875,0.875 3.9375,2.390625 1.28125,1.5 1.28125,3.90625 z"
             style="font-style:normal;font-weight:bold;font-size:32px;font-family:Orbitron;letter-spacing:0;dominant-baseline:auto;fill:#44bbf8"
             id="path190" />
          <path
             d="M 42.5625,-12.4375 V 0 h -5.65625 v -8.765625 q 0,-1.28125 -0.0625,-2.171875 -0.0625,-0.90625 -0.34375,-1.46875 -0.28125,-0.5625 -0.859375,-0.8125 -0.5625,-0.265625 -1.59375,-0.265625 -0.828125,0 -1.609375,0.34375 -0.78125,0.328125 -1.40625,0.703125 V 0 h -5.625 v -17.546875 h 5.625 v 1.9375 q 1.453125,-1.140625 2.78125,-1.78125 1.328125,-0.640625 2.9375,-0.640625 1.734375,0 3.0625,0.78125 1.328125,0.765625 2.078125,2.265625 1.6875,-1.421875 3.28125,-2.234375 1.59375,-0.8125 3.125,-0.8125 2.84375,0 4.3125,1.703125 1.484375,1.703125 1.484375,4.90625 V 0 H 48.4375 v -8.765625 q 0,-1.296875 -0.0625,-2.1875 -0.04687,-0.890625 -0.328125,-1.453125 -0.265625,-0.5625 -0.84375,-0.8125 -0.578125,-0.265625 -1.625,-0.265625 -0.703125,0 -1.375,0.25 Q 43.53125,-13 42.5625,-12.4375 Z"
             style="font-style:normal;font-weight:bold;font-size:32px;font-family:Orbitron;letter-spacing:0;dominant-baseline:auto;fill:#44bbf8"
             id="path192" />
          <path
             d="m 69.90625,-4.578125 v -3.65625 q -1.140625,0.09375 -2.46875,0.265625 -1.328125,0.15625 -2.015625,0.375 -0.84375,0.265625 -1.296875,0.78125 -0.4375,0.5 -0.4375,1.328125 0,0.546875 0.09375,0.890625 Q 63.875,-4.25 64.25,-3.9375 q 0.359375,0.3125 0.859375,0.46875 0.5,0.140625 1.5625,0.140625 0.84375,0 1.703125,-0.34375 0.875,-0.34375 1.53125,-0.90625 z m 0,2.71875 q -0.453125,0.34375 -1.125,0.828125 -0.671875,0.484375 -1.265625,0.765625 -0.828125,0.375 -1.71875,0.546875 -0.890625,0.1875 -1.953125,0.1875 -2.5,0 -4.1875,-1.546875 -1.6875,-1.546875 -1.6875,-3.953125 0,-1.921875 0.859375,-3.140625 0.859375,-1.21875 2.4375,-1.921875 1.5625,-0.703125 3.875,-1 2.3125,-0.296875 4.796875,-0.4375 V -11.625 q 0,-1.453125 -1.1875,-2 -1.1875,-0.5625 -3.5,-0.5625 -1.390625,0 -2.96875,0.5 -1.578125,0.484375 -2.265625,0.75 H 59.5 v -4.234375 q 0.890625,-0.234375 2.890625,-0.546875 2.015625,-0.328125 4.03125,-0.328125 4.796875,0 6.921875,1.484375 2.140625,1.46875 2.140625,4.625 V 0 H 69.90625 Z"
             style="font-style:normal;font-weight:bold;font-size:32px;font-family:Orbitron;letter-spacing:0;dominant-baseline:auto;fill:#44bbf8"
             id="path194" />
          <path
             d="m 93.375,-12.1875 h -0.5 q -0.359375,-0.125 -1.15625,-0.1875 -0.796875,-0.0625 -1.328125,-0.0625 -1.203125,0 -2.125,0.15625 Q 87.34375,-12.125 86.28125,-11.75 V 0 h -5.625 v -17.546875 h 5.625 v 2.578125 q 1.859375,-1.59375 3.234375,-2.109375 1.375,-0.53125 2.53125,-0.53125 0.296875,0 0.671875,0.01563 0.375,0.01563 0.65625,0.04687 z"
             style="font-style:normal;font-weight:bold;font-size:32px;font-family:Orbitron;letter-spacing:0;dominant-baseline:auto;fill:#44bbf8"
             id="path196" />
          <path
             d="m 107.8125,-0.15625 q -0.90625,0.234375 -1.92187,0.359375 -1.01563,0.140625 -2.48438,0.140625 -3.28125,0 -4.890625,-1.328125 -1.59375,-1.328125 -1.59375,-4.546875 v -8.203125 h -2.3125 v -3.8125 h 2.3125 V -22.5625 h 5.625005 v 5.015625 h 5.26562 v 3.8125 h -5.26562 v 6.21875 q 0,0.921875 0.0156,1.609375 0.0156,0.6875 0.25,1.234375 0.21875,0.546875 0.76563,0.875 0.5625,0.3125 1.625,0.3125 0.4375,0 1.14062,-0.1875 0.71875,-0.1875 1,-0.34375 h 0.46875 z"
             style="font-style:normal;font-weight:bold;font-size:32px;font-family:Orbitron;letter-spacing:0;dominant-baseline:auto;fill:#44bbf8"
             id="path198" />
          <path
             d="m 128.25,0 h -16.78125 v -23.265625 h 6 V -4.5 H 128.25 Z"
             style="font-style:normal;font-weight:bold;font-size:32px;font-family:Orbitron;letter-spacing:0;dominant-baseline:auto;fill:#44bbf8"
             id="path200" />
          <path
             d="m 149.46875,-8.765625 q 0,4.328125 -2.53125,6.828125 -2.51563,2.484375 -7.07813,2.484375 -4.5625,0 -7.09375,-2.484375 -2.51562,-2.5 -2.51562,-6.828125 0,-4.359375 2.53125,-6.84375 2.54687,-2.484375 7.07812,-2.484375 4.59375,0 7.09375,2.5 2.51563,2.5 2.51563,6.828125 z M 142.54687,-4.5 q 0.54688,-0.671875 0.8125,-1.609375 0.28125,-0.953125 0.28125,-2.625 0,-1.546875 -0.28125,-2.59375 Q 143.07812,-12.375 142.57812,-13 q -0.5,-0.640625 -1.20312,-0.90625 -0.70313,-0.265625 -1.51563,-0.265625 -0.8125,0 -1.45312,0.21875 -0.625,0.21875 -1.20313,0.875 -0.51562,0.609375 -0.82812,1.671875 -0.29688,1.0625 -0.29688,2.671875 0,1.4375 0.26563,2.5 0.26562,1.046875 0.78125,1.6875 0.5,0.609375 1.1875,0.890625 0.70312,0.28125 1.59375,0.28125 0.76562,0 1.45312,-0.25 0.70313,-0.265625 1.1875,-0.875 z"
             style="font-style:normal;font-weight:bold;font-size:32px;font-family:Orbitron;letter-spacing:0;dominant-baseline:auto;fill:#44bbf8"
             id="path202" />
          <path
             d="m 162.67187,0.46875 q -2.29687,0 -4.20312,-0.546875 -1.89063,-0.546875 -3.29688,-1.6875 -1.39062,-1.140625 -2.15625,-2.875 Q 152.25,-6.375 152.25,-8.703125 q 0,-2.453125 0.8125,-4.234375 0.82812,-1.78125 2.29687,-2.953125 1.42188,-1.109375 3.28125,-1.625 1.85938,-0.515625 3.85938,-0.515625 1.79687,0 3.3125,0.390625 1.51562,0.390625 2.82812,1.015625 v 4.796875 h -0.79687 q -0.32813,-0.28125 -0.79688,-0.65625 -0.45312,-0.375 -1.125,-0.734375 -0.64062,-0.34375 -1.40625,-0.5625 -0.76562,-0.234375 -1.78125,-0.234375 -2.25,0 -3.46875,1.4375 -1.20312,1.421875 -1.20312,3.875 0,2.53125 1.23437,3.84375 1.25,1.3125 3.53125,1.3125 1.0625,0 1.90625,-0.234375 0.85938,-0.25 1.42188,-0.578125 0.53125,-0.3125 0.9375,-0.65625 0.40625,-0.34375 0.75,-0.671875 h 0.79687 v 4.796875 q -1.32812,0.625 -2.78125,0.984375 -1.4375,0.375 -3.1875,0.375 z"
             style="font-style:normal;font-weight:bold;font-size:32px;font-family:Orbitron;letter-spacing:0;dominant-baseline:auto;fill:#44bbf8"
             id="path204" />
          <path
             d="m 190.96875,0 h -6.54688 L 179.5,-7.640625 177.96875,-5.78125 V 0 h -5.625 v -24.3125 h 5.625 v 14.515625 l 6.0625,-7.75 h 6.48437 l -6.3125,7.5625 z"
             style="font-style:normal;font-weight:bold;font-size:32px;font-family:Orbitron;letter-spacing:0;dominant-baseline:auto;fill:#44bbf8"
             id="path206" />
        </g>
      </g>
    </g>
    <g
       transform="matrix(0.26458333,0,0,0.26458333,-129.28608,151.55098)"
       data-item-type="image"
       data-item="Image"
       data-logo-item=""
       id="logo__item--logo_0"
       class="logo__item">
      <g
         class="logo__item__inner"
         transform="matrix(1.4571419,0,0,1.4571419,576.95705,415)"
         id="g60">
        <g
           id="g58">
          <radialGradient
             id="SVGID_1_"
             cx="50.101601"
             cy="32.502399"
             r="46.303501"
             gradientUnits="userSpaceOnUse">
            <stop
               offset="0"
               style="stop-color:#7CC5F1"
               id="stop7" />
            <stop
               offset="0.009"
               style="stop-color:#79C4F1"
               id="stop9" />
            <stop
               offset="0.2612"
               style="stop-color:#22B2ED"
               id="stop11" />
            <stop
               offset="0.3758"
               style="stop-color:#00ABEB"
               id="stop13" />
            <stop
               offset="0.465"
               style="stop-color:#00A4E3"
               id="stop15" />
            <stop
               offset="0.6054"
               style="stop-color:#0091CC"
               id="stop17" />
            <stop
               offset="0.7795"
               style="stop-color:#0072A7"
               id="stop19" />
            <stop
               offset="0.9788"
               style="stop-color:#004775"
               id="stop21" />
            <stop
               offset="1"
               style="stop-color:#00426F"
               id="stop23" />
          </radialGradient>
          <path
             style="fill:#44bbf8"
             inkscape:connector-curvature="0"
             d="M 67.764,39.413 49.93,29.009 31.55,40.431 V 60.134 L 49.438,70.475 67.802,59.653 Z m -12.906,8.046 c -0.754,0.75 -1.896,0.964 -2.834,1.446 0.102,1.394 1.339,15.505 1.366,15.912 -2.593,0 -5.186,0 -7.784,0 0.488,-5.39 0.97,-10.769 1.479,-16.147 -0.648,-0.439 -1.318,-0.836 -1.923,-1.339 -2.212,-1.832 -2.839,-5.24 -1.388,-7.586 0.884,-1.426 2.314,-2.657 3.933,-3.14 1.237,-0.375 2.631,-0.386 3.895,-0.085 2.245,0.514 4.142,2.411 4.789,4.811 0.605,2.229 -0.033,4.66 -1.533,6.128 z"
             data-part-id="logo__item--logo_0__0"
             id="path26" />
          <radialGradient
             id="SVGID_2_"
             cx="78.014603"
             cy="71.281197"
             r="37.7584"
             gradientUnits="userSpaceOnUse">
            <stop
               offset="0"
               style="stop-color:#7CC5F1"
               id="stop28" />
            <stop
               offset="0.009"
               style="stop-color:#79C4F1"
               id="stop30" />
            <stop
               offset="0.2612"
               style="stop-color:#22B2ED"
               id="stop32" />
            <stop
               offset="0.3758"
               style="stop-color:#00ABEB"
               id="stop34" />
            <stop
               offset="0.465"
               style="stop-color:#00A4E3"
               id="stop36" />
            <stop
               offset="0.6054"
               style="stop-color:#0091CC"
               id="stop38" />
            <stop
               offset="0.7795"
               style="stop-color:#0072A7"
               id="stop40" />
            <stop
               offset="0.9788"
               style="stop-color:#004775"
               id="stop42" />
            <stop
               offset="1"
               style="stop-color:#00426F"
               id="stop44" />
          </radialGradient>
          <polygon
             style="fill:#44bbf8"
             points="85.6,38.042 74.177,45.305 74.177,64.024 48.96,77.557 48.944,90.5 85.6,70.367 "
             data-part-id="logo__item--logo_0__1"
             id="polygon47" />
          <radialGradient
             id="SVGID_3_"
             cx="30.6201"
             cy="29.8804"
             r="52.224701"
             gradientUnits="userSpaceOnUse">
            <stop
               offset="0"
               style="stop-color:#919395"
               id="stop49" />
            <stop
               offset="0.6727"
               style="stop-color:#424243"
               id="stop51" />
            <stop
               offset="1"
               style="stop-color:#272525"
               id="stop53" />
          </radialGradient>
          <path
             style="fill:#44bbf8"
             inkscape:connector-curvature="0"
             d="m 25.378,36.262 c 1.179,-0.943 17.631,-10.768 24.675,-14.635 0.333,0.149 16.571,9.439 24.184,13.896 3.792,-2.433 7.734,-4.65 11.362,-7.318 C 77.311,23.556 49.743,8.147 49.743,8.147 c 0,0 -28.195,15.14 -37.71,21.033 0,0 -0.123,37.576 0,39.782 2.941,2.165 6.167,3.911 9.327,5.732 9.23,5.198 27.584,15.806 27.584,15.806 l 0.017,-12.943 c 0,0 -15.75,-9.129 -23.711,-13.79 0.01,-1.425 0.128,-24.922 0.128,-27.505 z"
             data-part-id="logo__item--logo_0__2"
             id="path56" />
        </g>
      </g>
    </g>
    <path
       style="fill:#337ab7;fill-opacity:1;stroke:#000000;stroke-width:0.17857143"
       d="m 155.18459,119.50084 c -7.8788,-4.55738 -23.29204,-13.39338 -31.25,-17.91482 -10.32724,-5.867561 -12.6156,-7.216324 -15.57983,-9.182747 l -2.45483,-1.628495 0.0441,-28.986819 0.0441,-28.98682 2.23214,-1.356191 c 7.08392,-4.304 28.60163,-16.286931 49.61296,-27.6288042 2.80465,-1.5139428 2.93591,-1.5647994 3.42176,-1.3257085 0.27788,0.1367458 11.9953,6.6772002 26.03872,14.5343427 20.12953,11.262256 25.49298,14.335229 25.3421,14.519666 -0.29412,0.359552 -6.39053,4.367274 -10.57625,6.952736 -2.0625,1.273977 -4.15794,2.572118 -4.65653,2.884757 l -0.90653,0.568434 -6.05776,-3.512098 C 184.04281,34.730094 164.50011,23.522528 162.47235,22.399778 l -1.19438,-0.661316 -0.69565,0.354895 c -4.22113,2.153462 -32.32213,18.814173 -34.97294,20.734993 -0.36929,0.267596 -0.36972,0.287394 -0.44186,20.347811 l -0.0722,20.079953 6.875,4.003198 c 3.78125,2.201759 11.55903,6.724854 17.28394,10.051322 l 10.40895,6.048126 18.38428,-9.863421 18.38429,-9.863418 0.008,-13.660714 0.008,-13.660714 7.60094,-4.821429 c 4.18052,-2.651786 7.91417,-5.010391 8.297,-5.241346 l 0.69603,-0.419918 -2.7e-4,23.455632 -2.6e-4,23.455632 -26.58195,14.598216 c -14.62008,8.02902 -26.69362,14.59657 -26.83009,14.59457 -0.13648,-0.002 -2.13654,-1.09596 -4.44457,-2.43101 z"
       id="path4570"
       inkscape:connector-curvature="0"
       transform="matrix(0.26458333,0,0,0.26458333,0,263.92706)" />
    <path
       style="fill:#337ab7;fill-opacity:1;stroke:#000000;stroke-width:0.17857143"
       d="M 147.32688,85.35017 134.38102,77.867603 V 63.538459 49.209312 l 13.34766,-8.2952 13.34767,-8.2952 12.94698,7.552674 12.94697,7.552674 v 14.741826 14.741825 l -13.09365,7.71451 c -7.20151,4.242982 -13.20847,7.758566 -13.34879,7.812413 -0.14333,0.055 -5.92782,-3.180856 -13.20098,-7.384664 z m 18.75025,-1.227177 c -1.8e-4,-0.368304 -0.40197,-5.317659 -0.89286,-10.998568 -0.4909,-5.680909 -0.89198,-10.622873 -0.89129,-10.982143 l 0.001,-0.653218 1.53779,-0.616762 c 1.92583,-0.772399 3.00532,-1.710395 3.87665,-3.368536 1.87085,-3.560234 1.45329,-7.601242 -1.11529,-10.793472 -1.91971,-2.385813 -4.42043,-3.526868 -7.72028,-3.522682 -2.65433,0.0034 -4.50893,0.655867 -6.44785,2.268527 -3.48246,2.896464 -4.43851,6.935114 -2.5695,10.854354 0.75386,1.580803 1.85669,2.792789 3.57477,3.928571 0.97493,0.644507 1.35208,0.999347 1.35591,1.275704 0.006,0.399726 -1.87651,21.194043 -2.03814,22.518939 l -0.0926,0.758929 h 5.71087 5.71087 l -3.6e-4,-0.669643 z"
       id="path4572"
       inkscape:connector-curvature="0"
       transform="matrix(0.26458333,0,0,0.26458333,0,263.92706)" />
    <path
       style="fill:#337ab7;fill-opacity:1;stroke:#000000;stroke-width:0.17857143"
       d="m 223.37509,76.220264 c -1.62708,-0.187459 -3.17358,-0.558332 -4.93157,-1.182659 l -1.29465,-0.459775 v -2.749739 c 0,-2.237416 0.0466,-2.749741 0.24992,-2.749741 0.13745,0 0.67986,0.292649 1.20535,0.65033 2.46553,1.678179 5.24323,2.46559 8.27688,2.346291 1.53967,-0.06055 2.12127,-0.158353 2.69051,-0.452453 0.93552,-0.483336 1.16011,-0.768211 1.27379,-1.615687 0.0795,-0.592792 0.0116,-0.785245 -0.47081,-1.334703 -0.65758,-0.748942 -1.34047,-1.002349 -4.46176,-1.655676 -4.77653,-0.999789 -6.95447,-2.232048 -8.03154,-4.544158 -0.38938,-0.835875 -0.45851,-1.237471 -0.46125,-2.679658 -0.003,-1.493663 0.0556,-1.816156 0.4887,-2.698122 0.98995,-2.015798 3.52073,-3.764915 6.29891,-4.353407 2.79175,-0.591368 7.6219,-0.225845 10.74374,0.813036 l 1.12614,0.374753 v 2.574727 c 0,2.494843 -0.0116,2.574727 -0.37422,2.574727 -0.20583,0 -0.60664,-0.165494 -0.8907,-0.367764 -0.85023,-0.605415 -3.0935,-1.575781 -4.30086,-1.860412 -1.46805,-0.346085 -3.94088,-0.346051 -5.1064,7.1e-5 -1.90873,0.56683 -2.6444,2.203114 -1.47969,3.291114 0.56176,0.524769 1.51507,0.838269 4.38401,1.441705 4.08213,0.858613 6.30204,1.898383 7.53565,3.52958 0.76441,1.010781 1.02492,1.961186 1.01697,3.710162 -0.006,1.232901 -0.0873,1.613376 -0.56576,2.635876 -1.40322,2.998604 -4.68278,4.670332 -9.50371,4.844429 -1.13002,0.04081 -2.66796,0.0035 -3.41765,-0.08285 z"
       id="path4574"
       inkscape:connector-curvature="0"
       transform="matrix(0.26458333,0,0,0.26458333,0,263.92706)" />
    <path
       style="fill:#337ab7;fill-opacity:1;stroke:#000000;stroke-width:0.17857143"
       d="m 240.89887,67.20335 v -8.660714 h 2.76786 2.76786 v 0.892857 c 0,0.491071 0.0283,0.892857 0.0628,0.892857 0.0345,0 0.61017,-0.359509 1.27917,-0.798909 1.67023,-1.097011 2.72261,-1.432227 4.46159,-1.421153 1.08783,0.0069 1.65121,0.107231 2.36197,0.420521 0.85596,0.377287 2.05704,1.450278 2.49058,2.224977 0.15926,0.28459 0.30968,0.220947 1.50548,-0.637 2.6024,-1.867137 4.58587,-2.414799 6.74364,-1.862005 1.71439,0.439208 2.50692,1.0668 3.32614,2.633944 0.6789,1.298712 0.80154,2.679078 0.80298,9.037839 l 0.001,5.9375 h -2.75488 -2.75488 l -0.0576,-5.848214 c -0.0517,-5.246773 -0.091,-5.909346 -0.38198,-6.442639 -0.66454,-1.21785 -2.65,-1.468663 -4.54171,-0.573732 l -1.11607,0.527991 v 6.168297 6.168297 h -2.76786 -2.76785 l -0.0101,-5.669643 c -0.0109,-6.137324 -0.073,-6.616761 -0.94052,-7.26006 -0.74052,-0.549137 -2.72898,-0.523712 -4.00476,0.05121 l -0.9375,0.422476 v 6.22801 6.22801 h -2.76786 -2.76786 z"
       id="path4576"
       inkscape:connector-curvature="0"
       transform="matrix(0.26458333,0,0,0.26458333,0,263.92706)" />
    <path
       style="fill:#337ab7;fill-opacity:1;stroke:#000000;stroke-width:0.17857143"
       d="m 277.41673,76.162225 c -1.18402,-0.394741 -1.76659,-0.765608 -2.56752,-1.63452 -1.06589,-1.156348 -1.33746,-1.875707 -1.34938,-3.574355 -0.009,-1.214592 0.0648,-1.581141 0.48935,-2.44716 1.04383,-2.129149 2.98112,-3.062322 7.52936,-3.626827 1.17564,-0.145914 2.52162,-0.265299 2.99107,-0.265299 0.79584,0 0.85355,-0.03078 0.85355,-0.455296 0,-0.81447 -0.51106,-1.51749 -1.39661,-1.921186 -0.7036,-0.320755 -1.17389,-0.381206 -2.97839,-0.382847 -1.92661,-0.0018 -2.32506,0.05629 -3.94836,0.575119 -0.99303,0.317387 -1.85687,0.577067 -1.91965,0.577067 -0.0628,0 -0.11413,-0.92101 -0.11413,-2.046688 v -2.046689 l 0.66964,-0.178645 c 1.14007,-0.304145 4.81442,-0.728258 6.25915,-0.722464 4.61967,0.01853 7.36535,1.190869 8.4438,3.605302 0.41354,0.925823 0.42229,1.062227 0.48718,7.594541 l 0.0661,6.651786 h -2.78435 -2.78436 v -0.899511 -0.899511 l -1.10654,0.751437 c -0.6086,0.41329 -1.51261,0.90591 -2.00893,1.094712 -1.16449,0.442982 -3.83844,0.581929 -4.83096,0.251034 z m 7.0492,-4.118049 0.80794,-0.422772 0.0505,-1.988863 0.0505,-1.988863 -0.67552,0.09066 c -3.96353,0.531948 -4.63807,0.722499 -5.23243,1.478104 -0.25371,0.322545 -0.3538,0.72322 -0.3538,1.416372 0,0.818247 0.0732,1.034452 0.47715,1.408799 0.96999,0.898956 3.16455,0.901909 4.87562,0.0066 z"
       id="path4578"
       inkscape:connector-curvature="0"
       transform="matrix(0.26458333,0,0,0.26458333,0,263.92706)" />
    <path
       style="fill:#337ab7;fill-opacity:1;stroke:#000000;stroke-width:0.17857143"
       d="m 296.07745,67.20335 v -8.660714 h 2.76785 2.76786 v 1.25 c 0,0.6875 0.0425,1.25 0.0945,1.25 0.052,0 0.49354,-0.315397 0.98122,-0.700882 1.52034,-1.201761 2.72478,-1.673304 4.5046,-1.763564 l 1.5625,-0.07924 4e-5,2.566486 4e-5,2.566485 -2.81254,0.0069 c -2.11236,0.0052 -2.99036,0.07631 -3.52683,0.28577 l -0.71428,0.278892 -0.0471,5.830302 -0.0471,5.830301 h -2.76542 -2.76541 z"
       id="path4580"
       inkscape:connector-curvature="0"
       transform="matrix(0.26458333,0,0,0.26458333,0,263.92706)" />
    <path
       style="fill:#337ab7;fill-opacity:1;stroke:#000000;stroke-width:0.17857143"
       d="m 316.16673,75.970184 c -1.13576,-0.280681 -1.84133,-0.656082 -2.43497,-1.295534 -1.19217,-1.284186 -1.40118,-2.510318 -1.40297,-8.230229 l -0.001,-4.330357 h -1.16072 -1.16071 V 60.32835 58.542636 h 1.16071 1.16072 v -2.5 -2.5 h 2.76785 2.76786 v 2.5 2.5 h 2.67857 2.67857 v 1.78094 1.780941 l -2.63393,0.04942 -2.63392,0.04942 -0.0499,4.107143 c -0.0417,3.438831 -0.003,4.231254 0.23944,4.869874 0.46808,1.234138 1.70846,1.667149 3.47743,1.21396 1.69757,-0.434897 1.60084,-0.529675 1.60084,1.568568 v 1.84883 l -1.23975,0.204741 c -1.58934,0.262473 -4.66347,0.238002 -5.81382,-0.04628 z"
       id="path4582"
       inkscape:connector-curvature="0"
       transform="matrix(0.26458333,0,0,0.26458333,0,263.92706)" />
    <path
       style="fill:#337ab7;fill-opacity:1;stroke:#000000;stroke-width:0.17857143"
       d="M 326.9703,64.346207 V 52.82835 h 2.94643 2.94643 v 9.375 9.375 h 5.35714 5.35715 v 2.142857 2.142857 h -8.30358 -8.30357 z"
       id="path4584"
       inkscape:connector-curvature="0"
       transform="matrix(0.26458333,0,0,0.26458333,0,263.92706)" />
    <path
       style="fill:#337ab7;fill-opacity:1;stroke:#000000;stroke-width:0.17857143"
       d="m 352.14887,76.1126 c -1.68773,-0.453105 -2.83046,-1.086028 -3.90349,-2.16202 -1.66848,-1.673102 -2.51888,-3.951027 -2.51888,-6.74723 0,-4.494196 2.30765,-7.720957 6.33309,-8.855498 1.31974,-0.371958 5.42662,-0.330022 6.69643,0.06838 2.1506,0.674748 3.90688,2.063701 4.88737,3.865176 0.67171,1.23417 0.98346,2.441013 1.10998,4.296943 0.32891,4.825148 -2.10519,8.435889 -6.43666,9.548134 -1.37471,0.353002 -4.83022,0.345223 -6.16784,-0.01388 z m 4.80874,-3.775599 c 1.52962,-0.779978 2.26477,-2.731324 2.10218,-5.579957 -0.14676,-2.571296 -0.657,-3.809224 -1.85953,-4.51154 -0.84357,-0.492672 -2.3768,-0.603778 -3.32656,-0.241061 -0.95279,0.363874 -1.40574,0.828272 -1.93788,1.986846 -0.35671,0.776651 -0.40925,1.176297 -0.4105,3.122775 -0.001,1.679597 0.0769,2.456502 0.31506,3.138496 0.3314,0.948998 1.15767,1.896841 1.91564,2.197499 0.7454,0.295672 2.52313,0.232895 3.20159,-0.113058 z"
       id="path4586"
       inkscape:connector-curvature="0"
       transform="matrix(0.26458333,0,0,0.26458333,0,263.92706)" />
    <path
       style="fill:#337ab7;fill-opacity:1;stroke:#000000;stroke-width:0.17857143"
       d="m 375.63102,76.220936 c -4.85814,-0.730673 -7.53619,-3.547239 -7.87204,-8.279209 -0.34037,-4.795624 2.23253,-8.380683 6.83387,-9.522245 1.83727,-0.455816 5.11002,-0.411363 6.90302,0.09376 0.77031,0.217014 1.63415,0.515361 1.91964,0.662995 l 0.51908,0.268425 v 2.316843 c 0,2.189882 -0.0194,2.316843 -0.35352,2.316843 -0.19444,0 -0.77703,-0.321139 -1.29464,-0.713642 -1.99033,-1.509237 -4.85161,-1.870752 -6.61718,-0.836061 -1.58548,0.929152 -2.40622,2.926103 -2.21954,5.400393 0.1626,2.155232 0.99708,3.466507 2.66175,4.18263 0.78832,0.339127 1.16138,0.388182 2.45665,0.323036 1.73246,-0.08713 2.82869,-0.489718 4.04302,-1.48477 1.27423,-1.044131 1.32346,-0.978052 1.32346,1.776298 v 2.397884 l -0.95399,0.356933 c -2.18748,0.81844 -4.9669,1.098245 -7.34958,0.739885 z"
       id="path4588"
       inkscape:connector-curvature="0"
       transform="matrix(0.26458333,0,0,0.26458333,0,263.92706)" />
    <path
       style="fill:#337ab7;fill-opacity:1;stroke:#000000;stroke-width:0.17857143"
       d="M 387.86316,63.810493 V 51.756921 h 2.67857 2.67857 v 7.232143 c 0,3.977679 0.0603,7.22872 0.13393,7.224538 0.0737,-0.0042 1.45982,-1.727114 3.08036,-3.828736 l 2.94643,-3.821131 3.20077,-0.01055 3.20077,-0.01055 -0.36021,0.401785 c -1.29394,1.443311 -5.77348,6.936278 -5.77348,7.079653 0,0.09625 1.44643,2.305592 3.21429,4.909649 1.76786,2.604057 3.21429,4.780534 3.21429,4.836616 0,0.05608 -1.42174,0.08002 -3.15942,0.0532 l -3.15941,-0.04876 -2.34095,-3.638814 c -1.28753,-2.001348 -2.41713,-3.642733 -2.51023,-3.647522 -0.0931,-0.0048 -0.5108,0.410241 -0.92821,0.922289 l -0.75893,0.930997 v 2.761168 2.761168 h -2.67857 -2.67857 z"
       id="path4590"
       inkscape:connector-curvature="0"
       transform="matrix(0.26458333,0,0,0.26458333,0,263.92706)" />
  </g>
</svg>
