<?xml version="1.0" encoding="UTF-8" standalone="no"?>
<!-- Created with Inkscape (http://www.inkscape.org/) -->

<svg
   xmlns:dc="http://purl.org/dc/elements/1.1/"
   xmlns:cc="http://creativecommons.org/ns#"
   xmlns:rdf="http://www.w3.org/1999/02/22-rdf-syntax-ns#"
   xmlns:svg="http://www.w3.org/2000/svg"
   xmlns="http://www.w3.org/2000/svg"
   xmlns:sodipodi="http://sodipodi.sourceforge.net/DTD/sodipodi-0.dtd"
   xmlns:inkscape="http://www.inkscape.org/namespaces/inkscape"
   width="500"
   height="125"
   viewBox="0 0 132.29167 33.072918"
   version="1.1"
   id="svg118"
   inkscape:version="0.92.1 r15371"
   sodipodi:docname="SmartLockLogo.svg">
  <defs
     id="defs112" />
  <sodipodi:namedview
     id="base"
     pagecolor="#ffffff"
     bordercolor="#666666"
     borderopacity="1.0"
     inkscape:pageopacity="0.0"
     inkscape:pageshadow="2"
     inkscape:zoom="1.4"
     inkscape:cx="145.26763"
     inkscape:cy="206.8659"
     inkscape:document-units="mm"
     inkscape:current-layer="logo__item--business"
     showgrid="false"
     units="px"
     inkscape:window-width="1920"
     inkscape:window-height="1017"
     inkscape:window-x="-8"
     inkscape:window-y="212"
     inkscape:window-maximized="1" />
  <metadata
     id="metadata115">
    <rdf:RDF>
      <cc:Work
         rdf:about="">
        <dc:format>image/svg+xml</dc:format>
        <dc:type
           rdf:resource="http://purl.org/dc/dcmitype/StillImage" />
        <dc:title></dc:title>
      </cc:Work>
    </rdf:RDF>
  </metadata>
  <g
     inkscape:label="Laag 1"
     inkscape:groupmode="layer"
     id="layer1"
     transform="translate(0,-263.92706)">
    <g
       transform="matrix(0.26458333,0,0,0.26458333,-129.47507,147.01527)"
       data-item-type="text"
       data-item="Business"
       id="logo__item--business"
       class="logo__item">
      <g
         class="logo__item__inner"
         transform="translate(704.75781,517.87134)"
         id="g4">
        <g
           aria-label="SmartLock"
           style="font-style:normal;font-weight:bold;font-size:32px;font-family:Orbitron;letter-spacing:0;dominant-baseline:auto;fill:#44bbf8"
           id="text2">
          <path
             d="m 21.59375,-7.3125 q 0,3.4375 -2.921875,5.59375 -2.90625,2.140625 -7.90625,2.140625 -2.890625,0 -5.046875,-0.5 Q 3.578125,-0.59375 1.703125,-1.375 v -5.578125 h 0.65625 q 1.859375,1.484375 4.15625,2.28125 2.3125,0.796875 4.4375,0.796875 0.546875,0 1.4375,-0.09375 0.890625,-0.09375 1.453125,-0.3125 0.6875,-0.28125 1.125,-0.703125 0.453125,-0.421875 0.453125,-1.25 0,-0.765625 -0.65625,-1.3125 Q 14.125,-8.109375 12.875,-8.40625 11.5625,-8.71875 10.09375,-8.984375 8.640625,-9.265625 7.359375,-9.6875 4.421875,-10.640625 3.125,-12.265625 q -1.28125,-1.640625 -1.28125,-4.0625 0,-3.25 2.90625,-5.296875 2.921875,-2.0625 7.5,-2.0625 2.296875,0 4.53125,0.453125 2.25,0.4375 3.890625,1.109375 v 5.359375 H 20.03125 q -1.40625,-1.125 -3.453125,-1.875 -2.03125,-0.765625 -4.15625,-0.765625 -0.75,0 -1.5,0.109375 -0.734375,0.09375 -1.421875,0.375 -0.609375,0.234375 -1.046875,0.71875 -0.4375,0.46875 -0.4375,1.078125 0,0.921875 0.703125,1.421875 0.703125,0.484375 2.65625,0.890625 1.28125,0.265625 2.453125,0.515625 1.1875,0.25 2.546875,0.6875 2.671875,0.875 3.9375,2.390625 1.28125,1.5 1.28125,3.90625 z"
             style="font-style:normal;font-weight:bold;font-size:32px;font-family:Orbitron;letter-spacing:0;dominant-baseline:auto;fill:#44bbf8"
             id="path190" />
          <path
             d="M 42.5625,-12.4375 V 0 h -5.65625 v -8.765625 q 0,-1.28125 -0.0625,-2.171875 -0.0625,-0.90625 -0.34375,-1.46875 -0.28125,-0.5625 -0.859375,-0.8125 -0.5625,-0.265625 -1.59375,-0.265625 -0.828125,0 -1.609375,0.34375 -0.78125,0.328125 -1.40625,0.703125 V 0 h -5.625 v -17.546875 h 5.625 v 1.9375 q 1.453125,-1.140625 2.78125,-1.78125 1.328125,-0.640625 2.9375,-0.640625 1.734375,0 3.0625,0.78125 1.328125,0.765625 2.078125,2.265625 1.6875,-1.421875 3.28125,-2.234375 1.59375,-0.8125 3.125,-0.8125 2.84375,0 4.3125,1.703125 1.484375,1.703125 1.484375,4.90625 V 0 H 48.4375 v -8.765625 q 0,-1.296875 -0.0625,-2.1875 -0.04687,-0.890625 -0.328125,-1.453125 -0.265625,-0.5625 -0.84375,-0.8125 -0.578125,-0.265625 -1.625,-0.265625 -0.703125,0 -1.375,0.25 Q 43.53125,-13 42.5625,-12.4375 Z"
             style="font-style:normal;font-weight:bold;font-size:32px;font-family:Orbitron;letter-spacing:0;dominant-baseline:auto;fill:#44bbf8"
             id="path192" />
          <path
             d="m 69.90625,-4.578125 v -3.65625 q -1.140625,0.09375 -2.46875,0.265625 -1.328125,0.15625 -2.015625,0.375 -0.84375,0.265625 -1.296875,0.78125 -0.4375,0.5 -0.4375,1.328125 0,0.546875 0.09375,0.890625 Q 63.875,-4.25 64.25,-3.9375 q 0.359375,0.3125 0.859375,0.46875 0.5,0.140625 1.5625,0.140625 0.84375,0 1.703125,-0.34375 0.875,-0.34375 1.53125,-0.90625 z m 0,2.71875 q -0.453125,0.34375 -1.125,0.828125 -0.671875,0.484375 -1.265625,0.765625 -0.828125,0.375 -1.71875,0.546875 -0.890625,0.1875 -1.953125,0.1875 -2.5,0 -4.1875,-1.546875 -1.6875,-1.546875 -1.6875,-3.953125 0,-1.921875 0.859375,-3.140625 0.859375,-1.21875 2.4375,-1.921875 1.5625,-0.703125 3.875,-1 2.3125,-0.296875 4.796875,-0.4375 V -11.625 q 0,-1.453125 -1.1875,-2 -1.1875,-0.5625 -3.5,-0.5625 -1.390625,0 -2.96875,0.5 -1.578125,0.484375 -2.265625,0.75 H 59.5 v -4.234375 q 0.890625,-0.234375 2.890625,-0.546875 2.015625,-0.328125 4.03125,-0.328125 4.796875,0 6.921875,1.484375 2.140625,1.46875 2.140625,4.625 V 0 H 69.90625 Z"
             style="font-style:normal;font-weight:bold;font-size:32px;font-family:Orbitron;letter-spacing:0;dominant-baseline:auto;fill:#44bbf8"
             id="path194" />
          <path
             d="m 93.375,-12.1875 h -0.5 q -0.359375,-0.125 -1.15625,-0.1875 -0.796875,-0.0625 -1.328125,-0.0625 -1.203125,0 -2.125,0.15625 Q 87.34375,-12.125 86.28125,-11.75 V 0 h -5.625 v -17.546875 h 5.625 v 2.578125 q 1.859375,-1.59375 3.234375,-2.109375 1.375,-0.53125 2.53125,-0.53125 0.296875,0 0.671875,0.01563 0.375,0.01563 0.65625,0.04687 z"
             style="font-style:normal;font-weight:bold;font-size:32px;font-family:Orbitron;letter-spacing:0;dominant-baseline:auto;fill:#44bbf8"
             id="path196" />
          <path
             d="m 107.8125,-0.15625 q -0.90625,0.234375 -1.92187,0.359375 -1.01563,0.140625 -2.48438,0.140625 -3.28125,0 -4.890625,-1.328125 -1.59375,-1.328125 -1.59375,-4.546875 v -8.203125 h -2.3125 v -3.8125 h 2.3125 V -22.5625 h 5.625005 v 5.015625 h 5.26562 v 3.8125 h -5.26562 v 6.21875 q 0,0.921875 0.0156,1.609375 0.0156,0.6875 0.25,1.234375 0.21875,0.546875 0.76563,0.875 0.5625,0.3125 1.625,0.3125 0.4375,0 1.14062,-0.1875 0.71875,-0.1875 1,-0.34375 h 0.46875 z"
             style="font-style:normal;font-weight:bold;font-size:32px;font-family:Orbitron;letter-spacing:0;dominant-baseline:auto;fill:#44bbf8"
             id="path198" />
          <path
             d="m 128.25,0 h -16.78125 v -23.265625 h 6 V -4.5 H 128.25 Z"
             style="font-style:normal;font-weight:bold;font-size:32px;font-family:Orbitron;letter-spacing:0;dominant-baseline:auto;fill:#44bbf8"
             id="path200" />
          <path
             d="m 149.46875,-8.765625 q 0,4.328125 -2.53125,6.828125 -2.51563,2.484375 -7.07813,2.484375 -4.5625,0 -7.09375,-2.484375 -2.51562,-2.5 -2.51562,-6.828125 0,-4.359375 2.53125,-6.84375 2.54687,-2.484375 7.07812,-2.484375 4.59375,0 7.09375,2.5 2.51563,2.5 2.51563,6.828125 z M 142.54687,-4.5 q 0.54688,-0.671875 0.8125,-1.609375 0.28125,-0.953125 0.28125,-2.625 0,-1.546875 -0.28125,-2.59375 Q 143.07812,-12.375 142.57812,-13 q -0.5,-0.640625 -1.20312,-0.90625 -0.70313,-0.265625 -1.51563,-0.265625 -0.8125,0 -1.45312,0.21875 -0.625,0.21875 -1.20313,0.875 -0.51562,0.609375 -0.82812,1.671875 -0.29688,1.0625 -0.29688,2.671875 0,1.4375 0.26563,2.5 0.26562,1.046875 0.78125,1.6875 0.5,0.609375 1.1875,0.890625 0.70312,0.28125 1.59375,0.28125 0.76562,0 1.45312,-0.25 0.70313,-0.265625 1.1875,-0.875 z"
             style="font-style:normal;font-weight:bold;font-size:32px;font-family:Orbitron;letter-spacing:0;dominant-baseline:auto;fill:#44bbf8"
             id="path202" />
          <path
             d="m 162.67187,0.46875 q -2.29687,0 -4.20312,-0.546875 -1.89063,-0.546875 -3.29688,-1.6875 -1.39062,-1.140625 -2.15625,-2.875 Q 152.25,-6.375 152.25,-8.703125 q 0,-2.453125 0.8125,-4.234375 0.82812,-1.78125 2.29687,-2.953125 1.42188,-1.109375 3.28125,-1.625 1.85938,-0.515625 3.85938,-0.515625 1.79687,0 3.3125,0.390625 1.51562,0.390625 2.82812,1.015625 v 4.796875 h -0.79687 q -0.32813,-0.28125 -0.79688,-0.65625 -0.45312,-0.375 -1.125,-0.734375 -0.64062,-0.34375 -1.40625,-0.5625 -0.76562,-0.234375 -1.78125,-0.234375 -2.25,0 -3.46875,1.4375 -1.20312,1.421875 -1.20312,3.875 0,2.53125 1.23437,3.84375 1.25,1.3125 3.53125,1.3125 1.0625,0 1.90625,-0.234375 0.85938,-0.25 1.42188,-0.578125 0.53125,-0.3125 0.9375,-0.65625 0.40625,-0.34375 0.75,-0.671875 h 0.79687 v 4.796875 q -1.32812,0.625 -2.78125,0.984375 -1.4375,0.375 -3.1875,0.375 z"
             style="font-style:normal;font-weight:bold;font-size:32px;font-family:Orbitron;letter-spacing:0;dominant-baseline:auto;fill:#44bbf8"
             id="path204" />
          <path
             d="m 190.96875,0 h -6.54688 L 179.5,-7.640625 177.96875,-5.78125 V 0 h -5.625 v -24.3125 h 5.625 v 14.515625 l 6.0625,-7.75 h 6.48437 l -6.3125,7.5625 z"
             style="font-style:normal;font-weight:bold;font-size:32px;font-family:Orbitron;letter-spacing:0;dominant-baseline:auto;fill:#44bbf8"
             id="path206" />
        </g>
      </g>
    </g>
    <g
       transform="matrix(0.26458333,0,0,0.26458333,-129.28608,151.55098)"
       data-item-type="image"
       data-item="Image"
       data-logo-item=""
       id="logo__item--logo_0"
       class="logo__item">
      <g
         class="logo__item__inner"
         transform="matrix(1.4571419,0,0,1.4571419,576.95705,415)"
         id="g60">
        <g
           id="g58">
          <radialGradient
             id="SVGID_1_"
             cx="50.101601"
             cy="32.502399"
             r="46.303501"
             gradientUnits="userSpaceOnUse">
            <stop
               offset="0"
               style="stop-color:#7CC5F1"
               id="stop7" />
            <stop
               offset="0.009"
               style="stop-color:#79C4F1"
               id="stop9" />
            <stop
               offset="0.2612"
               style="stop-color:#22B2ED"
               id="stop11" />
            <stop
               offset="0.3758"
               style="stop-color:#00ABEB"
               id="stop13" />
            <stop
               offset="0.465"
               style="stop-color:#00A4E3"
               id="stop15" />
            <stop
               offset="0.6054"
               style="stop-color:#0091CC"
               id="stop17" />
            <stop
               offset="0.7795"
               style="stop-color:#0072A7"
               id="stop19" />
            <stop
               offset="0.9788"
               style="stop-color:#004775"
               id="stop21" />
            <stop
               offset="1"
               style="stop-color:#00426F"
               id="stop23" />
          </radialGradient>
          <path
             style="fill:#44bbf8"
             inkscape:connector-curvature="0"
             d="M 67.764,39.413 49.93,29.009 31.55,40.431 V 60.134 L 49.438,70.475 67.802,59.653 Z m -12.906,8.046 c -0.754,0.75 -1.896,0.964 -2.834,1.446 0.102,1.394 1.339,15.505 1.366,15.912 -2.593,0 -5.186,0 -7.784,0 0.488,-5.39 0.97,-10.769 1.479,-16.147 -0.648,-0.439 -1.318,-0.836 -1.923,-1.339 -2.212,-1.832 -2.839,-5.24 -1.388,-7.586 0.884,-1.426 2.314,-2.657 3.933,-3.14 1.237,-0.375 2.631,-0.386 3.895,-0.085 2.245,0.514 4.142,2.411 4.789,4.811 0.605,2.229 -0.033,4.66 -1.533,6.128 z"
             data-part-id="logo__item--logo_0__0"
             id="path26" />
          <radialGradient
             id="SVGID_2_"
             cx="78.014603"
             cy="71.281197"
             r="37.7584"
             gradientUnits="userSpaceOnUse">
            <stop
               offset="0"
               style="stop-color:#7CC5F1"
               id="stop28" />
            <stop
               offset="0.009"
               style="stop-color:#79C4F1"
               id="stop30" />
            <stop
               offset="0.2612"
               style="stop-color:#22B2ED"
               id="stop32" />
            <stop
               offset="0.3758"
               style="stop-color:#00ABEB"
               id="stop34" />
            <stop
               offset="0.465"
               style="stop-color:#00A4E3"
               id="stop36" />
            <stop
               offset="0.6054"
               style="stop-color:#0091CC"
               id="stop38" />
            <stop
               offset="0.7795"
               style="stop-color:#0072A7"
               id="stop40" />
            <stop
               offset="0.9788"
               style="stop-color:#004775"
               id="stop42" />
            <stop
               offset="1"
               style="stop-color:#00426F"
               id="stop44" />
          </radialGradient>
          <polygon
             style="fill:#44bbf8"
             points="85.6,38.042 74.177,45.305 74.177,64.024 48.96,77.557 48.944,90.5 85.6,70.367 "
             data-part-id="logo__item--logo_0__1"
             id="polygon47" />
          <radialGradient
             id="SVGID_3_"
             cx="30.6201"
             cy="29.8804"
             r="52.224701"
             gradientUnits="userSpaceOnUse">
            <stop
               offset="0"
               style="stop-color:#919395"
               id="stop49" />
            <stop
               offset="0.6727"
               style="stop-color:#424243"
               id="stop51" />
            <stop
               offset="1"
               style="stop-color:#272525"
               id="stop53" />
          </radialGradient>
          <path
             style="fill:#44bbf8"
             inkscape:connector-curvature="0"
             d="m 25.378,36.262 c 1.179,-0.943 17.631,-10.768 24.675,-14.635 0.333,0.149 16.571,9.439 24.184,13.896 3.792,-2.433 7.734,-4.65 11.362,-7.318 C 77.311,23.556 49.743,8.147 49.743,8.147 c 0,0 -28.195,15.14 -37.71,21.033 0,0 -0.123,37.576 0,39.782 2.941,2.165 6.167,3.911 9.327,5.732 9.23,5.198 27.584,15.806 27.584,15.806 l 0.017,-12.943 c 0,0 -15.75,-9.129 -23.711,-13.79 0.01,-1.425 0.128,-24.922 0.128,-27.505 z"
             data-part-id="logo__item--logo_0__2"
             id="path56" />
        </g>
      </g>
    </g>
  </g>
</svg>
